PathFileType	4	(X/Y/Z)	C:/Users/opensim2020/Desktop/walking_exp_matlab/subject01_walking06_straight_02.trc																																																																																																																															
DataRate	CameraRate	NumFrames	NumMarkers	Units	OrigDataRate	OrigDataStartFrame	OrigNumFrames																																																																																																																											
100	100	4	43	mm	100	1536	171																																																																																																																											
Frame#	Time	LFHD			RFHD			LBHD			RBHD			C7			T10			CLAV			STRN			RBAK			LSHO			LUPA			LELB			LFRM			LWRA			LWRB			LFIN			RSHO			RUPA			RELB			RFRM			RWRA			RWRB			RFIN			LASI			RASI			LPSI			RPSI			LTHI			LKNE			LTIB			LANK			LHEE			LTOE			RTHI			RKNE			RTIB			RANK			RHEE			RTOE			*39			*40			*41			*42		
		X1	Y1	Z1	X2	Y2	Z2	X3	Y3	Z3	X4	Y4	Z4	X5	Y5	Z5	X6	Y6	Z6	X7	Y7	Z7	X8	Y8	Z8	X9	Y9	Z9	X10	Y10	Z10	X11	Y11	Z11	X12	Y12	Z12	X13	Y13	Z13	X14	Y14	Z14	X15	Y15	Z15	X16	Y16	Z16	X17	Y17	Z17	X18	Y18	Z18	X19	Y19	Z19	X20	Y20	Z20	X21	Y21	Z21	X22	Y22	Z22	X23	Y23	Z23	X24	Y24	Z24	X25	Y25	Z25	X26	Y26	Z26	X27	Y27	Z27	X28	Y28	Z28	X29	Y29	Z29	X30	Y30	Z30	X31	Y31	Z31	X32	Y32	Z32	X33	Y33	Z33	X34	Y34	Z34	X35	Y35	Z35	X36	Y36	Z36	X37	Y37	Z37	X38	Y38	Z38	X39	Y39	Z39	X40	Y40	Z40	X41	Y41	Z41	X42	Y42	Z42	X43	Y43	Z43
																																																																																																																																		
22	0.21	-692.64984	1660.68811	1086.05725	-653.6004	1666.03564	1195.15845	-804.09521	1616.0083	1121.03711	-767.18622	1621.73071	1236.86755	-838.10785	1425.23401	1152.94897	-878.18994	1132.22498	1153.33374	-695.3725	1354.69238	1147.31738	-654.87262	1200.16797	1143.40198	-892.87634	1232.84485	1231.02759	-760.48254	1387.18445	987.70941	-822.85437	1210.07715	903.12683	-868.64337	1070.06995	904.89606	-868.45001	957.08539	878.79474	-840.10352	819.6051	900.56482	-888.99945	836.27429	869.02521	-873.0188	751.37659	867.20282	-751.97076	1385.90417	1301.04724	-801.60229	1187.84253	1406.97668	-793.11749	1060.70715	1415.15613	-725.47681	957.87164	1443.63293	-602.47711	888.81116	1432.85791	-647.30597	865.44714	1460.18506	-581.2276	812.3266	1465.70959	-699.60864	924.81244	1050.21851	-715.10199	923.70239	1268.78638	-888.45331	937.10071	1085.23206	-897.88959	946.79547	1228.48804	-661.64874	605.30524	985.37195	-633.86981	476.77112	1009.41656	-623.97601	290.84106	1002.13281	-563.47455	77.00893	1055.42688	-591.24756	37.5568	1114.41199	-415.95117	82.44782	1041.93042	-840.37457	605.08179	1316.98608	-871.42773	446.36179	1292.30078	-974.35754	301.64893	1292.18738	-1055.59509	109.00326	1240.64551	-1108.26025	85.61935	1186.65002	-927.6991	39.08705	1243.08069	-670.68634	1699.68799	1175.37805	-1973.06116	1023.44208	3101.86377	-2012.51379	1022.03003	3140.65161	NaN	NaN	NaN
23	0.22	-683.21722	1659.90601	1084.2179	-644.39258	1665.41833	1193.41565	-794.69775	1615.04346	1119.00366	-757.94794	1620.9519	1234.86743	-828.37024	1424.10193	1151.16345	-867.44531	1131.07092	1152.28442	-685.284	1354.052	1145.74658	-644.40112	1199.57605	1142.22119	-882.76416	1231.85303	1229.69055	-750.59344	1386.02722	986.04889	-812.78094	1208.52832	902.13129	-858.3028	1068.49011	904.47278	-858.29553	955.54651	878.49463	-829.95923	818.12866	900.44147	-878.98981	834.73993	869.07983	-863.08301	749.77319	867.53949	-742.11005	1385.35168	1299.41956	-792.43915	1187.46436	1405.44824	-784.10406	1060.33691	1413.77454	-716.41034	957.43463	1442.11646	-593.39929	888.52563	1431.34973	-638.07501	865.35309	1458.91345	-571.91016	812.08423	1464.24341	-688.23944	924.21655	1049.77112	-704.3067	922.79523	1268.46143	-877.26678	936.22076	1084.39868	-887.01898	945.97382	1227.49438	-648.80255	604.92468	986.43219	-621.99988	476.11462	1010.49017	-615.45862	289.35501	1002.81915	-559.59729	74.81535	1056.62256	-589.03259	36.42346	1114.96973	-412.10345	77.55688	1044.92407	-830.5907	604.59839	1316.94031	-862.41827	445.72281	1292.67456	-968.13196	303.01318	1292.65613	-1053.35938	111.86285	1241.52734	-1106.63928	89.80671	1187.85144	-927.37274	39.04345	1243.16699	-661.45416	1699.05444	1173.59302	-1973.12646	1023.30969	3101.84985	-2012.57202	1021.96124	3140.67627	NaN	NaN	NaN
24	0.23	-673.66064	1659.1051	1082.24451	-635.15149	1664.80774	1191.52405	-785.20276	1614.10559	1116.79053	-748.7746	1620.22351	1232.76758	-818.56384	1423.09033	1149.30701	-856.20728	1129.76343	1151.17834	-675.17249	1353.45386	1143.98621	-633.77454	1199.11243	1140.94897	-872.49182	1230.82373	1228.19507	-740.55688	1384.86072	984.24493	-802.46387	1207.08008	900.89282	-847.70557	1066.95032	903.76996	-847.74908	953.93506	878.17926	-819.26862	816.69165	900.28491	-868.17737	833.08112	868.98407	-852.36646	748.18762	867.79254	-732.38202	1384.7124	1297.57898	-783.37451	1187.08398	1403.67566	-775.18622	1060.0105	1412.28809	-707.52344	957.14783	1440.6958	-584.51776	888.02234	1429.73816	-629.14447	864.78986	1457.52478	-562.94397	811.6153	1462.59644	-676.73419	923.55121	1049.11487	-693.36914	921.82153	1267.87805	-866.03595	935.30084	1083.41199	-875.9978	945.18658	1226.5509	-635.95941	604.47223	987.57318	-610.09344	475.58328	1011.43988	-607.44879	287.78043	1003.71655	-556.78638	72.66911	1058.40857	-587.82227	36.08126	1116.12598	-408.85226	70.74911	1047.85876	-820.30841	603.99017	1316.75781	-852.93549	445.06802	1293.15845	-961.60553	304.4408	1293.32397	-1051.06934	115.03848	1242.66699	-1105.37512	94.45735	1188.94983	-927.00732	39.02829	1243.38391	-652.23077	1698.54736	1171.63452	-1973.12732	1023.41003	3101.92847	-2012.51917	1021.97546	3140.67358	NaN	NaN	NaN
25	0.24	-664.12274	1658.73376	1080.13196	-625.95282	1664.52307	1189.69727	-775.61633	1613.39941	1114.46106	-739.59222	1619.65698	1230.59131	-808.9519	1422.26038	1147.13354	-845.53467	1128.71472	1150.02844	-664.99933	1352.94543	1142.25415	-623.10162	1198.85278	1139.5365	-862.16547	1230.01831	1226.51489	-730.40204	1383.92444	982.25812	-791.91052	1205.5791	899.46832	-836.88446	1065.37207	902.91608	-836.68414	952.32257	877.67975	-807.81329	815.25226	900.02924	-857.14111	831.41504	869.15369	-841.05371	746.53851	867.89618	-722.64813	1384.29968	1295.72144	-774.48248	1186.84424	1401.91699	-766.3515	1059.66357	1410.61365	-698.617	956.69775	1439.16406	-575.90161	887.3714	1428.08655	-620.48657	864.26935	1456.00134	-554.31042	811.07947	1461.02942	-665.36603	923.09564	1048.62415	-682.28497	920.98193	1267.13501	-854.79028	934.43127	1082.2063	-864.75092	944.36542	1225.5083	-623.46295	603.92303	988.98138	-598.44324	475.13876	1011.99902	-599.99103	286.57599	1005.17175	-553.56213	72.42403	1059.73621	-586.23285	37.30493	1117.09509	-405.54233	63.85987	1049.63257	-809.53137	603.29657	1316.48767	-842.94855	444.29553	1293.43652	-954.67151	306.00928	1293.90222	-1048.24438	118.39971	1243.83521	-1102.92114	99.4949	1190.55798	-926.61835	39.03707	1243.60132	-643.05927	1697.97522	1169.64148	-1973.1394	1023.50397	3101.90771	-2012.64197	1022.11273	3140.78442	NaN	NaN	NaN
